HIERARCHY
ROOT Hips
{
	OFFSET 0.00000 0.00000 0.00000
	CHANNELS 6 Xposition Yposition Zposition Zrotation Yrotation Xrotation 
	JOINT RightUpLegDummy
	{
		OFFSET 0 0 0
		CHANNELS 3 Zrotation Yrotation Xrotation
		JOINT RightUpLeg
		{
			OFFSET -3.52197 -3.41223 0.04002
			CHANNELS 3 Zrotation Yrotation Xrotation
			JOINT RightLeg
			{
				OFFSET -1.06336 -17.58347 1.60435
				CHANNELS 3 Zrotation Yrotation Xrotation
				JOINT RightFoot
				{
					OFFSET -0.27018 -17.05419 -1.63900
					CHANNELS 3 Zrotation Yrotation Xrotation
					JOINT RightToes
					{
						OFFSET 0.00298 -1.73825 3.34613
						CHANNELS 3 Zrotation Yrotation Xrotation
						End Site
						{
							OFFSET 0.00480 -0.05416 3.85043
						}
					}
				}
			}
		}
	}
	JOINT SpineDummy
	{
		OFFSET 0 0 0
		CHANNELS 3 Zrotation Yrotation Xrotation
		JOINT Spine
		{
			OFFSET 0.00000 4.14613 0.00000
			CHANNELS 3 Zrotation Yrotation Xrotation
			JOINT Spine1
			{
				OFFSET 0.00000 10.93369 0.05002
				CHANNELS 3 Zrotation Yrotation Xrotation
				JOINT HEadDummy
				{
					OFFSET 0 0 0
					CHANNELS 3 Zrotation Yrotation Xrotation
					JOINT Head
					{
						OFFSET 0.00000 5.52901 0.00438
						CHANNELS 3 Zrotation Yrotation Xrotation
						End Site
						{
							OFFSET -0.11417 7.29012 0.98962
						}
					}
				}
				JOINT LeftShoulder1Dummy
				{
					OFFSET 0 0 0
					CHANNELS 3 Zrotation Yrotation Xrotation
					JOINT LeftShoulder1
					{
						OFFSET 3.53937 -0.14262 -0.08662
						CHANNELS 3 Zrotation Yrotation Xrotation
						JOINT LeftArm
						{
							OFFSET 4.04833 -0.00133 0.12681
							CHANNELS 3 Zrotation Yrotation Xrotation
							JOINT LeftForeArm
							{
								OFFSET 9.67557 0.03289 -0.56117
								CHANNELS 3 Zrotation Yrotation Xrotation
								JOINT LeftHand
								{
									OFFSET 10.17679 0.06873 0.40307
									CHANNELS 3 Zrotation Yrotation Xrotation
									End Site
									{
										OFFSET 6.59293 -0.21483 0.59213
									}
								}
							}
						}
					}
				}
				JOINT RightShoulderDummy
				{
					OFFSET 0 0 0
					CHANNELS 3 Zrotation Yrotation Xrotation
					JOINT RightShoulder
					{
						OFFSET -3.53937 -0.14262 -0.08660
						CHANNELS 3 Zrotation Yrotation Xrotation
						JOINT RightArm
						{
							OFFSET -4.04833 -0.00132 0.12683
							CHANNELS 3 Zrotation Yrotation Xrotation
							JOINT RightForeArm
							{
								OFFSET -9.67570 0.03289 -0.56114
								CHANNELS 3 Zrotation Yrotation Xrotation
								JOINT RightHand
								{
									OFFSET -10.17679 0.06867 0.40304
									CHANNELS 3 Zrotation Yrotation Xrotation
									End Site
									{
										OFFSET -6.54841 -0.21495 0.59212
									}
								}
							}
						}
					}
				}
			}
		}
	}
	JOINT LeftUpLegDummy
	{
		OFFSET 0 0 0
		CHANNELS 3 Zrotation Yrotation Xrotation
		JOINT LeftUpLeg
		{
			OFFSET 3.52197 -3.41223 0.04002
			CHANNELS 3 Zrotation Yrotation Xrotation
			JOINT LeftLeg
			{
				OFFSET 1.08359 -17.35354 1.60336
				CHANNELS 3 Zrotation Yrotation Xrotation
				JOINT LeftFoot
				{
					OFFSET 0.24986 -17.28405 -1.63802
					CHANNELS 3 Zrotation Yrotation Xrotation
					JOINT LeftToes
					{
						OFFSET -0.01575 -1.73822 3.34610
						CHANNELS 3 Zrotation Yrotation Xrotation
						End Site
						{
							OFFSET 0.03150 -0.01868 3.85031
						}
					}
				}
			}
		}
	}
}
MOTION
Frames: 6
Frame Time: 0.033333
-57.2603 39.3622 -0.3374 -173.0630 -47.2564 174.1700 0.0000 0.0000 0.0000 -8.5872 1.3822 -8.8622 0.8775 4.8038 27.7271 6.9125 0.2230 -11.6318 0.0000 0.0000 -0.0000 0.0000 0.0000 0.0000 4.8529 7.4110 -1.7901 -4.7361 9.4737 19.4721 0.0000 0.0000 0.0000 4.2103 4.2502 -5.5416 0.0000 0.0000 0.0000 -9.5050 -3.7398 1.4775 9.5680 -64.2733 -66.9760 -175.9605 -81.5076 170.9463 6.3426 -1.0608 -0.3030 0.0000 0.0000 0.0000 0.8212 2.1294 0.5999 65.7748 81.7499 14.1783 7.2071 85.2546 0.9878 -23.2077 4.4053 -1.8018 0.0000 0.0000 0.0000 15.8543 26.3388 -16.7609 -0.8902 -4.2007 12.1932 -3.5400 0.7342 8.6428 -0.0000 -0.0000 0.0000
-57.4874 39.5117 -0.3650 -172.6590 -46.7992 173.9000 0.0000 0.0000 0.0000 -8.3452 1.0633 -7.6392 -0.5275 3.2242 23.6744 4.9353 0.1311 -10.1722 0.0000 0.0000 -0.0000 0.0000 0.0000 0.0000 6.2408 7.0767 -1.3001 -5.7678 9.4096 18.2457 0.0000 0.0000 0.0000 5.1928 4.9166 -4.5007 0.0000 0.0000 0.0000 -9.4489 -3.7491 1.4752 9.5201 -63.9156 -66.6822 -175.6676 -81.3720 169.2943 6.3320 -1.0440 -0.3015 0.0000 0.0000 0.0000 0.8104 2.1537 0.6017 73.5014 82.2896 21.4458 7.2304 84.7125 -0.8627 -23.3202 4.3118 -1.7924 0.0000 0.0000 0.0000 16.5030 25.6238 -15.7179 -0.7148 -3.0395 11.5335 -3.8239 0.8132 9.2703 -0.0000 -0.0000 0.0000
-57.6738 39.4678 -0.4521 -172.8290 -46.1828 174.2200 0.0000 0.0000 0.0000 -8.3899 1.6173 -7.3707 -2.4400 -0.1303 21.8400 3.6476 0.0033 -7.5390 0.0000 0.0000 -0.0000 0.0000 0.0000 0.0000 7.1722 7.0119 -1.8733 -6.0281 9.4274 18.2954 0.0000 0.0000 0.0000 5.5490 5.4319 -3.3373 0.0000 0.0000 0.0000 -9.9467 -3.9121 1.5419 8.3282 -63.8246 -65.3734 -175.5514 -81.1080 168.2261 6.5374 -0.7510 -0.2968 0.0000 0.0000 0.0000 0.5751 2.1321 0.5859 77.2048 82.8486 25.4606 7.2552 84.2052 -2.6398 -23.3043 4.2608 -1.7810 0.0000 0.0000 0.0000 16.0022 27.2004 -16.1529 -0.6499 -4.4615 12.7399 -3.9101 0.7999 8.6601 -0.0000 -0.0000 0.0000
-57.7717 39.2478 -0.5901 -173.8430 -45.4536 174.9990 0.0000 0.0000 0.0000 -9.1518 2.7041 -7.4561 -3.2755 -1.7673 22.0345 5.2133 -0.0529 -7.1916 0.0000 0.0000 -0.0000 0.0000 0.0000 0.0000 7.6317 7.0941 -2.6973 -6.2303 9.6663 19.4003 0.0000 0.0000 0.0000 5.4622 5.9303 -2.5089 0.0000 0.0000 0.0000 -10.4297 -3.9708 1.5893 6.6968 -63.8522 -64.0274 -175.8180 -80.5514 168.5726 6.9212 -0.5571 -0.3042 0.0000 0.0000 0.0000 0.0948 1.9954 0.5449 78.4046 83.5151 27.1548 7.3345 84.0418 -3.3384 -23.3789 4.2307 -1.7809 0.0000 0.0000 0.0000 14.4542 31.2238 -17.9241 -1.0517 -7.6218 15.8555 -3.3255 0.5883 6.1988 -0.0000 -0.0000 0.0000
-57.7713 38.9282 -0.7229 -174.7750 -44.7894 175.3120 0.0000 0.0000 0.0000 -9.9364 4.1541 -7.0355 -3.2472 -1.6898 22.5793 7.7814 0.0804 -9.8624 0.0000 0.0000 -0.0000 0.0000 0.0000 0.0000 8.6247 6.9597 -2.4188 -7.2410 9.9836 19.9702 0.0000 0.0000 0.0000 5.2977 6.6736 -2.0207 0.0000 0.0000 0.0000 -10.4784 -3.7315 1.5481 4.2356 -63.5816 -62.0369 -176.2541 -79.5870 169.3588 7.4147 -0.4284 -0.3188 0.0000 0.0000 0.0000 -0.3025 1.8782 0.5114 78.5149 84.0161 27.8381 7.7719 84.2413 -3.3632 -23.6149 4.0397 -1.7612 0.0000 0.0000 0.0000 13.5232 35.0233 -20.5435 -2.2822 -9.9314 21.1650 -3.3454 0.5378 4.9661 -0.0000 -0.0000 0.0000
-57.7467 38.5648 -0.8069 -174.5750 -44.4561 174.9940 0.0000 0.0000 0.0000 -9.8933 5.5501 -6.9874 -3.3901 -1.8982 23.5119 8.6885 0.3574 -13.0302 0.0000 0.0000 -0.0000 0.0000 0.0000 0.0000 10.0886 6.5445 -1.7070 -7.9686 9.8895 19.6849 0.0000 0.0000 0.0000 5.3104 7.8453 -2.2643 0.0000 0.0000 0.0000 -10.0312 -3.3050 1.4365 0.9199 -62.8329 -59.3392 -176.8137 -77.9691 170.4928 7.7133 -0.3593 -0.3276 0.0000 0.0000 0.0000 -0.3156 1.8352 0.5066 75.6369 84.2116 25.9440 9.2346 84.9128 -2.8066 -23.8014 3.8064 -1.7284 0.0000 0.0000 0.0000 14.3915 36.1749 -23.5217 -4.6489 -11.1206 27.5490 -5.0052 0.8544 6.4003 -0.0000 -0.0000 0.0000
